<svg width="14" height="14" viewBox="0 0 14 14" fill="none" xmlns="http://www.w3.org/2000/svg">
<path fill-rule="evenodd" clip-rule="evenodd" d="M13.3522 0.835419C13.0875 0.566196 12.74 0.43103 12.3924 0.43103C12.0449 0.43103 11.6974 0.566196 11.4327 0.835419C11.4327 0.835419 11.4131 0.854254 11.388 0.880844C11.3869 0.881951 11.3855 0.882782 11.3842 0.883613C11.3828 0.884444 11.3815 0.885275 11.3804 0.886383L1.56263 10.8698C1.52886 10.9053 1.5038 10.9485 1.49073 10.9972L0.930774 13.1211C0.904628 13.2186 0.931864 13.3227 1.00268 13.3947C1.05606 13.449 1.12687 13.4778 1.19986 13.4778C1.22382 13.4778 1.24779 13.4745 1.27176 13.4679L3.36015 12.8984C3.40809 12.8851 3.45057 12.8596 3.48543 12.8242L13.3021 2.84185C13.3041 2.83977 13.3053 2.83726 13.3065 2.83485C13.3071 2.83341 13.3078 2.83202 13.3086 2.83077L13.3511 2.78756C13.8827 2.24801 13.8827 1.37387 13.3522 0.835419ZM12.9579 1.23543C13.2695 1.55229 13.2695 2.06858 12.9579 2.38545C12.8945 2.44913 12.8378 2.50711 12.7866 2.55938L12.7193 2.62808L11.5885 1.47806L11.8271 1.23543C11.9774 1.08143 12.179 0.997229 12.3925 0.997229C12.606 0.997229 12.8065 1.08254 12.9579 1.23543ZM2.83072 12.4552L1.92651 11.5356L1.59424 12.7931L2.83072 12.4552Z" fill="white"/>
</svg>
